<?xml version="1.0" encoding="UTF-8" standalone="no"?>
<!-- Created with Inkscape (http://www.inkscape.org/) -->

<svg
   width="1000"
   height="1000"
   viewBox="0 0 264.58333 264.58333"
   version="1.1"
   id="svg1"
   inkscape:version="1.3 (0e150ed6c4, 2023-07-21)"
   sodipodi:docname="alt-logo2.svg"
   xmlns:inkscape="http://www.inkscape.org/namespaces/inkscape"
   xmlns:sodipodi="http://sodipodi.sourceforge.net/DTD/sodipodi-0.dtd"
   xmlns:xlink="http://www.w3.org/1999/xlink"
   xmlns="http://www.w3.org/2000/svg"
   xmlns:svg="http://www.w3.org/2000/svg">
  <sodipodi:namedview
     id="namedview1"
     pagecolor="#ffffff"
     bordercolor="#000000"
     borderopacity="0.25"
     inkscape:showpageshadow="2"
     inkscape:pageopacity="0.0"
     inkscape:pagecheckerboard="0"
     inkscape:deskcolor="#d1d1d1"
     inkscape:document-units="mm"
     showgrid="false"
     inkscape:zoom="0.52347032"
     inkscape:cx="128.94714"
     inkscape:cy="640.91504"
     inkscape:window-width="1920"
     inkscape:window-height="1009"
     inkscape:window-x="-8"
     inkscape:window-y="-8"
     inkscape:window-maximized="1"
     inkscape:current-layer="layer1">
    <inkscape:grid
       id="grid1"
       units="px"
       originx="0"
       originy="0"
       spacingx="0.26458333"
       spacingy="0.26458333"
       empcolor="#0099e5"
       empopacity="0.30196078"
       color="#0099e5"
       opacity="0.14901961"
       empspacing="5"
       dotted="false"
       gridanglex="30"
       gridanglez="30"
       visible="false" />
  </sodipodi:namedview>
  <defs
     id="defs1">
    <linearGradient
       id="linearGradient62"
       inkscape:collect="always">
      <stop
         style="stop-color:#000000;stop-opacity:1;"
         offset="0"
         id="stop62" />
      <stop
         style="stop-color:#ffffff;stop-opacity:1;"
         offset="0.87270159"
         id="stop64" />
      <stop
         style="stop-color:#ffffff;stop-opacity:1;"
         offset="1"
         id="stop63" />
    </linearGradient>
    <linearGradient
       id="linearGradient54"
       inkscape:collect="always">
      <stop
         style="stop-color:#ffffff;stop-opacity:1;"
         offset="0"
         id="stop54" />
      <stop
         style="stop-color:#ffffff;stop-opacity:1;"
         offset="0.40311173"
         id="stop58" />
      <stop
         style="stop-color:#ffffff;stop-opacity:0;"
         offset="0.61951911"
         id="stop57" />
      <stop
         style="stop-color:#c8c8c8;stop-opacity:1;"
         offset="0.61951911"
         id="stop56" />
      <stop
         style="stop-color:#ffffff;stop-opacity:1;"
         offset="1"
         id="stop55" />
    </linearGradient>
    <linearGradient
       id="linearGradient34"
       inkscape:collect="always">
      <stop
         style="stop-color:#ff4d4e;stop-opacity:1;"
         offset="0"
         id="stop34" />
      <stop
         style="stop-color:#81ff80;stop-opacity:1;"
         offset="0.49646392"
         id="stop36" />
      <stop
         style="stop-color:#7e7eff;stop-opacity:1;"
         offset="1"
         id="stop35" />
    </linearGradient>
    <linearGradient
       id="linearGradient31"
       inkscape:collect="always">
      <stop
         style="stop-color:#cccccc;stop-opacity:1;"
         offset="0"
         id="stop32" />
      <stop
         style="stop-color:#cccccc;stop-opacity:0;"
         offset="1"
         id="stop33" />
    </linearGradient>
    <linearGradient
       inkscape:collect="always"
       xlink:href="#linearGradient31"
       id="linearGradient33"
       x1="22.306438"
       y1="68.791672"
       x2="242.27692"
       y2="195.79166"
       gradientUnits="userSpaceOnUse" />
    <linearGradient
       inkscape:collect="always"
       xlink:href="#linearGradient34"
       id="linearGradient35"
       x1="22.306438"
       y1="68.791672"
       x2="242.27692"
       y2="195.79166"
       gradientUnits="userSpaceOnUse" />
    <linearGradient
       inkscape:collect="always"
       xlink:href="#linearGradient34"
       id="linearGradient43"
       x1="80"
       y1="740"
       x2="920"
       y2="260"
       gradientUnits="userSpaceOnUse" />
    <linearGradient
       inkscape:collect="always"
       xlink:href="#linearGradient54"
       id="linearGradient55"
       x1="105.83333"
       y1="114.14214"
       x2="216.95833"
       y2="114.14214"
       gradientUnits="userSpaceOnUse" />
    <linearGradient
       inkscape:collect="always"
       xlink:href="#linearGradient62"
       id="linearGradient63"
       x1="52.916665"
       y1="133.7222"
       x2="143.73896"
       y2="133.7222"
       gradientUnits="userSpaceOnUse" />
  </defs>
  <g
     inkscape:label="Layer 1"
     inkscape:groupmode="layer"
     id="layer1">
    <g
       id="g64">
      <path
         style="fill:url(#linearGradient43);fill-opacity:1;stroke:none;stroke-width:68.7718;stroke-linecap:round;stroke-linejoin:round;stroke-dasharray:none"
         d="m 84.307798,740.00002 0,-480 L 499.99999,19.999999 919.99997,259.99999 915.69227,739.99998 499.99999,979.99997 Z"
         id="path25"
         transform="scale(0.26458333)"
         sodipodi:nodetypes="ccccccc" />
      <path
         id="path60"
         style="fill:url(#linearGradient63);fill-opacity:1;stroke:none;stroke-width:9.88373;stroke-linecap:round;stroke-linejoin:round;stroke-dasharray:none"
         d="m 52.916665,79.374994 2.96689,113.078916 18.996961,3.33775 6.540897,-6.9985 v -52.67848 l 29.371777,1.4296 c 27.42233,1.33472 32.94577,-16.47291 32.94577,-32.94576 0,-16.472873 -5.49099,-32.945781 -32.94577,-32.945781 l -47.992164,0.452563 z m 24.930741,8.750632 h 38.436754 c 5.49095,0 8.23644,9.873586 8.23644,16.472894 0,6.59929 -2.74549,16.47287 -8.23644,16.47287 H 77.847406 Z"
         sodipodi:nodetypes="cccccssscccssscc" />
      <path
         id="path9"
         style="fill:url(#linearGradient33);stroke:url(#linearGradient35);stroke-width:9.525;stroke-linecap:round;stroke-linejoin:round;stroke-dasharray:none;fill-opacity:1"
         d="M 132.29166,259.29165 22.306438,195.79167 m 219.970472,-1e-5 -109.98523,63.50001 m 109.98521,-190.500006 2e-5,126.999996 M 132.29166,5.2916665 242.27689,68.791664 m -219.970452,7e-6 L 132.29166,5.2916665 M 22.306438,195.79167 v -127" />
      <path
         style="fill:url(#linearGradient55);stroke:none;stroke-width:9.525;stroke-linecap:round;stroke-linejoin:round;stroke-dasharray:none"
         d="M 136.56979,88.755971 216.95833,61.444154 V 172.20114 l -79.37499,-46.79016 c 5.13889,-9.76588 5.9641,-25.869042 -1.01355,-36.655009 z"
         id="path50"
         sodipodi:nodetypes="ccccc" />
      <path
         id="path47"
         style="fill:#5555aa;fill-opacity:1;stroke:none;stroke-width:9.525;stroke-linecap:round;stroke-linejoin:round;stroke-dasharray:none"
         d="M 52.916665,79.374994 V 195.79166 h 21.166668 v -52.91667 h 31.750007 c 26.45831,0 31.75,-15.87502 31.75,-31.74999 0,-15.874986 -5.2917,-31.750006 -31.75,-31.750006 z m 21.166668,15.875 h 37.041677 c 5.29166,0 7.9375,9.515226 7.9375,15.875006 0,6.35977 -2.64584,15.87499 -7.9375,15.87499 H 74.083333 Z"
         sodipodi:nodetypes="ccccsssccssscc" />
      <path
         id="path59"
         style="fill:#5555aa;fill-opacity:1;stroke:none;stroke-width:9.525;stroke-linecap:round;stroke-linejoin:round;stroke-dasharray:none"
         d="m 193.70833,69.709341 c -9.989,1.8622 -19.083,13.5643 -19.083,23.5723 v 40.028999 c 0,10.007 9.094,22.073 19.083,24.334 11.024,2.496 23.25,-6.928 23.25,-19.119 V 89.758641 c 0,-12.192 -12.226,-22.1042 -23.25,-20.0493 z m 0,14.6563 c 8.634,-1.016 11.024,4.965 11.024,14.117 v 30.828999 c 0,9.152 -2.39,15.038 -11.024,13.677 -7.986,-1.258 -9.989,-7.249 -9.989,-15.542 V 99.508641 c 0,-8.294 2.003,-14.204 9.989,-15.143 z"
         sodipodi:nodetypes="ssssssssssssss" />
    </g>
  </g>
</svg>
